<?xml version="1.0" encoding="UTF-8"?>
<svg width="69" height="100" version="1.1" xmlns="http://www.w3.org/2000/svg">
 <path d="m50.286 1.9995h12.5l-26 51.142 4.7144 19.929q2.3573 9.9289 5.4288 12.572 3.143 2.6429 7.5715 2.6429 10.429 0 11.143-12.143h2.643q-0.13595 10.643-4.1431 16.715-4.0001 6.1431-10.786 6.1431-5.9284 0-9.4289-3.7858-3.5-3.7857-6.2141-15l-4.7144-19.857-19.072 38.358h-12.5l27.643-54.928-4.0001-16.857q-2.2138-9.2145-4.4288-12.429-2.2138-3.2858-6.9284-3.2858-8.3571 0-10.357 12.715h-2.6429q0-10 3.4286-16.429 3.5-6.5001 10.357-6.5001 5.9288 0 8.8575 4.3571 2.9999 4.3571 5.7144 15.786l3.7143 15.429z"/>
</svg>
